<svg width="24" height="25" viewBox="0 0 24 25" fill="none" xmlns="http://www.w3.org/2000/svg">
<path fill-rule="evenodd" clip-rule="evenodd" d="M13 14.7622C13 14.2099 13.4477 13.7622 14 13.7622H21C21.5523 13.7622 22 14.2099 22 14.7622V21.7622C22 22.3144 21.5523 22.7622 21 22.7622H14C13.4477 22.7622 13 22.3144 13 21.7622V14.7622ZM15 15.7622V20.7622H20V15.7622H15Z" fill="#3D3D3D"/>
<path fill-rule="evenodd" clip-rule="evenodd" d="M2 14.7622C2 14.2099 2.44772 13.7622 3 13.7622H10C10.5523 13.7622 11 14.2099 11 14.7622V21.7622C11 22.3144 10.5523 22.7622 10 22.7622H3C2.44772 22.7622 2 22.3144 2 21.7622V14.7622ZM4 15.7622V20.7622H9V15.7622H4Z" fill="#3D3D3D"/>
<path fill-rule="evenodd" clip-rule="evenodd" d="M13 3.76216C13 3.20988 13.4477 2.76216 14 2.76216H21C21.5523 2.76216 22 3.20988 22 3.76216V10.7622C22 11.3144 21.5523 11.7622 21 11.7622H14C13.4477 11.7622 13 11.3144 13 10.7622V3.76216ZM15 4.76216V9.76216H20V4.76216H15Z" fill="#3D3D3D"/>
<path fill-rule="evenodd" clip-rule="evenodd" d="M2 3.76216C2 3.20988 2.44772 2.76216 3 2.76216H10C10.5523 2.76216 11 3.20988 11 3.76216V10.7622C11 11.3144 10.5523 11.7622 10 11.7622H3C2.44772 11.7622 2 11.3144 2 10.7622V3.76216ZM4 4.76216V9.76216H9V4.76216H4Z" fill="#3D3D3D"/>
</svg>
