<svg width="24" height="25" viewBox="0 0 24 25" fill="none" xmlns="http://www.w3.org/2000/svg">
<path d="M12 15.7621C12.7956 15.7621 13.5587 15.4461 14.1213 14.8835C14.6839 14.3209 15 13.5578 15 12.7621C15 11.9665 14.6839 11.2034 14.1213 10.6408C13.5587 10.0782 12.7956 9.76215 12 9.76215C11.2044 9.76215 10.4413 10.0782 9.87868 10.6408C9.31607 11.2034 9 11.9665 9 12.7621C9 13.5578 9.31607 14.3209 9.87868 14.8835C10.4413 15.4461 11.2044 15.7621 12 15.7621Z" fill="#3D3D3D"/>
<path fill-rule="evenodd" clip-rule="evenodd" d="M12 3.76216C12.2652 3.76216 12.5196 3.86752 12.7071 4.05505C12.8946 4.24259 13 4.49694 13 4.76216V5.83216C14.4962 6.04777 15.8824 6.74194 16.9513 7.81084C18.0202 8.87975 18.7144 10.266 18.93 11.7622H20C20.2652 11.7622 20.5196 11.8675 20.7071 12.0551C20.8946 12.2426 21 12.4969 21 12.7622C21 13.0274 20.8946 13.2817 20.7071 13.4693C20.5196 13.6568 20.2652 13.7622 20 13.7622H18.93C18.7144 15.2584 18.0202 16.6446 16.9513 17.7135C15.8824 18.7824 14.4962 19.4765 13 19.6922V20.7622C13 21.0274 12.8946 21.2817 12.7071 21.4693C12.5196 21.6568 12.2652 21.7622 12 21.7622C11.7348 21.7622 11.4804 21.6568 11.2929 21.4693C11.1054 21.2817 11 21.0274 11 20.7622V19.6922C9.50379 19.4765 8.11759 18.7824 7.04868 17.7135C5.97978 16.6446 5.28561 15.2584 5.07 13.7622H4C3.73478 13.7622 3.48043 13.6568 3.29289 13.4693C3.10536 13.2817 3 13.0274 3 12.7622C3 12.4969 3.10536 12.2426 3.29289 12.0551C3.48043 11.8675 3.73478 11.7622 4 11.7622H5.07C5.28638 10.2663 5.9808 8.88049 7.04956 7.81172C8.11833 6.74296 9.50411 6.04854 11 5.83216V4.76216C11 4.49694 11.1054 4.24259 11.2929 4.05505C11.4804 3.86752 11.7348 3.76216 12 3.76216ZM7 12.7622C7 11.4361 7.52678 10.1643 8.46447 9.22663C9.40215 8.28895 10.6739 7.76216 12 7.76216C13.3261 7.76216 14.5979 8.28895 15.5355 9.22663C16.4732 10.1643 17 11.4361 17 12.7622C17 14.0882 16.4732 15.36 15.5355 16.2977C14.5979 17.2354 13.3261 17.7622 12 17.7622C10.6739 17.7622 9.40215 17.2354 8.46447 16.2977C7.52678 15.36 7 14.0882 7 12.7622Z" fill="#3D3D3D"/>
</svg>
