<svg width="24" height="25" viewBox="0 0 24 25" fill="none" xmlns="http://www.w3.org/2000/svg">
<path d="M5 21.7621C4.45 21.7621 3.97933 21.5665 3.588 21.1751C3.19667 20.7838 3.00067 20.3128 3 19.7621V5.76215C3 5.21215 3.196 4.74148 3.588 4.35015C3.98 3.95881 4.45067 3.76281 5 3.76215H11C11.2833 3.76215 11.521 3.85815 11.713 4.05015C11.905 4.24215 12.0007 4.47948 12 4.76215C11.9993 5.04481 11.9033 5.28248 11.712 5.47515C11.5207 5.66781 11.2833 5.76348 11 5.76215H5V19.7621H11C11.2833 19.7621 11.521 19.8581 11.713 20.0501C11.905 20.2421 12.0007 20.4795 12 20.7621C11.9993 21.0448 11.9033 21.2825 11.712 21.4751C11.5207 21.6678 11.2833 21.7635 11 21.7621H5ZM17.175 13.7621H10C9.71667 13.7621 9.47933 13.6661 9.288 13.4741C9.09667 13.2821 9.00067 13.0448 9 12.7621C8.99933 12.4795 9.09533 12.2421 9.288 12.0501C9.48067 11.8581 9.718 11.7621 10 11.7621H17.175L15.3 9.88715C15.1167 9.70381 15.025 9.47881 15.025 9.21215C15.025 8.94548 15.1167 8.71215 15.3 8.51215C15.4833 8.31215 15.7167 8.20781 16 8.19915C16.2833 8.19048 16.525 8.28648 16.725 8.48715L20.3 12.0621C20.5 12.2621 20.6 12.4955 20.6 12.7621C20.6 13.0288 20.5 13.2621 20.3 13.4621L16.725 17.0371C16.525 17.2371 16.2877 17.3331 16.013 17.3251C15.7383 17.3171 15.5007 17.2128 15.3 17.0121C15.1167 16.8121 15.0293 16.5748 15.038 16.3001C15.0467 16.0255 15.1423 15.7961 15.325 15.6121L17.175 13.7621Z" fill="#3D3D3D"/>
</svg>
