<svg width="24" height="25" viewBox="0 0 24 25" fill="none" xmlns="http://www.w3.org/2000/svg">
<path d="M3 6.79372C3 5.73267 3 5.20215 3.20653 4.79667C3.38818 4.44017 3.67802 4.15032 4.03453 3.96867C4.44 3.76215 4.97053 3.76215 6.03158 3.76215H17.9684C19.0295 3.76215 19.56 3.76215 19.9655 3.96867C20.322 4.15032 20.6118 4.44017 20.7935 4.79667C21 5.20215 21 5.73267 21 6.79372V18.7306C21 19.7916 21 20.3221 20.7935 20.7276C20.6118 21.0841 20.322 21.374 19.9655 21.5556C19.56 21.7621 19.0295 21.7621 17.9684 21.7621H6.03158C4.97053 21.7621 4.44 21.7621 4.03453 21.5556C3.67802 21.374 3.38818 21.0841 3.20653 20.7276C3 20.3221 3 19.7916 3 18.7306V6.79372Z" stroke="#3D3D3D" stroke-width="0.947368" stroke-linecap="round"/>
<path d="M18.1579 21.7622L12.4737 7.55163M21 5.65689L3 9.44636M12.4737 15.6327C12.4737 17.6771 10.4463 19.1133 9.56242 19.6429C9.44022 19.7162 9.3004 19.7549 9.15789 19.7549C9.01539 19.7549 8.87557 19.7162 8.75337 19.6429C7.86947 19.1133 5.84211 17.6771 5.84211 15.6317C5.84211 13.6262 7.44884 12.2885 9.15789 12.2885C10.9266 12.2885 12.4737 13.6262 12.4737 15.6327Z" stroke="#3D3D3D" stroke-width="0.947368"/>
<path d="M9.15831 16.5516C9.68152 16.5516 10.1057 16.1275 10.1057 15.6043C10.1057 15.081 9.68152 14.6569 9.15831 14.6569C8.63509 14.6569 8.21094 15.081 8.21094 15.6043C8.21094 16.1275 8.63509 16.5516 9.15831 16.5516Z" fill="#3D3D3D"/>
</svg>
