<svg width="24" height="24" viewBox="0 0 24 24" fill="none" xmlns="http://www.w3.org/2000/svg">
<g clip-path="url(#clip0_4001_163)">
<path fill-rule="evenodd" clip-rule="evenodd" d="M4.99969 8.99983C4.99969 7.14331 5.73718 5.36284 7.04994 4.05008C8.36269 2.73733 10.1432 1.99983 11.9997 1.99983C13.8562 1.99983 15.6367 2.73733 16.9494 4.05008C18.2622 5.36284 18.9997 7.14331 18.9997 8.99983V12.7638L20.8217 16.4078C20.9056 16.5755 20.9452 16.7619 20.9367 16.9493C20.9283 17.1366 20.8721 17.3187 20.7735 17.4782C20.6749 17.6377 20.5372 17.7693 20.3734 17.8606C20.2096 17.9519 20.0252 17.9999 19.8377 17.9998H15.8737C15.6512 18.8581 15.1501 19.6181 14.4489 20.1608C13.7478 20.7034 12.8863 20.9978 11.9997 20.9978C11.1131 20.9978 10.2516 20.7034 9.55042 20.1608C8.84926 19.6181 8.34812 18.8581 8.12569 17.9998H4.16169C3.97416 17.9999 3.78975 17.9519 3.62595 17.8606C3.46216 17.7693 3.32442 17.6377 3.22583 17.4782C3.12724 17.3187 3.07106 17.1366 3.06263 16.9493C3.05421 16.7619 3.09381 16.5755 3.17769 16.4078L4.99969 12.7638V8.99983ZM10.2677 17.9998C10.4432 18.3038 10.6957 18.5563 10.9997 18.7318C11.3038 18.9073 11.6486 18.9997 11.9997 18.9997C12.3507 18.9997 12.6956 18.9073 12.9996 18.7318C13.3037 18.5563 13.5561 18.3038 13.7317 17.9998H10.2677ZM11.9997 3.99983C10.6736 3.99983 9.40183 4.52661 8.46415 5.46429C7.52647 6.40198 6.99969 7.67375 6.99969 8.99983V12.7638C6.99967 13.0742 6.92743 13.3802 6.78869 13.6578L5.61869 15.9998H18.3817L17.2117 13.6578C17.0726 13.3803 17 13.0742 16.9997 12.7638V8.99983C16.9997 7.67375 16.4729 6.40198 15.5352 5.46429C14.5975 4.52661 13.3258 3.99983 11.9997 3.99983Z" fill="#488B2E"/>
</g>
<defs>
<clipPath id="clip0_4001_163">
<rect width="24" height="24" fill="white"/>
</clipPath>
</defs>
</svg>
