<svg width="24" height="24" viewBox="0 0 24 24" fill="none" xmlns="http://www.w3.org/2000/svg">
<path d="M19.6 20.9998L13.3 14.6998C12.8 15.0998 12.225 15.4165 11.575 15.6498C10.925 15.8832 10.2333 15.9998 9.5 15.9998C7.68333 15.9998 6.14583 15.3707 4.8875 14.1123C3.62917 12.854 3 11.3165 3 9.49983C3 7.68316 3.62917 6.14566 4.8875 4.88733C6.14583 3.629 7.68333 2.99983 9.5 2.99983C11.3167 2.99983 12.8542 3.629 14.1125 4.88733C15.3708 6.14566 16 7.68316 16 9.49983C16 10.2332 15.8833 10.9248 15.65 11.5748C15.4167 12.2248 15.1 12.7998 14.7 13.2998L21 19.5998L19.6 20.9998ZM9.5 13.9998C10.75 13.9998 11.8125 13.5623 12.6875 12.6873C13.5625 11.8123 14 10.7498 14 9.49983C14 8.24983 13.5625 7.18733 12.6875 6.31233C11.8125 5.43733 10.75 4.99983 9.5 4.99983C8.25 4.99983 7.1875 5.43733 6.3125 6.31233C5.4375 7.18733 5 8.24983 5 9.49983C5 10.7498 5.4375 11.8123 6.3125 12.6873C7.1875 13.5623 8.25 13.9998 9.5 13.9998Z" fill="#3D3D3D"/>
</svg>
