<svg width="24" height="25" viewBox="0 0 24 25" fill="none" xmlns="http://www.w3.org/2000/svg">
<path d="M19.8999 13.4222C19.7396 13.2397 19.6512 13.0051 19.6512 12.7622C19.6512 12.5193 19.7396 12.2847 19.8999 12.1022L21.1799 10.6622C21.3209 10.5048 21.4085 10.3069 21.4301 10.0967C21.4516 9.88647 21.4061 9.67485 21.2999 9.49216L19.2999 6.03216C19.1948 5.84968 19.0348 5.70504 18.8426 5.61885C18.6505 5.53266 18.4361 5.50932 18.2299 5.55216L16.3499 5.93216C16.1107 5.98159 15.8616 5.94175 15.6498 5.82016C15.4379 5.69857 15.2779 5.50365 15.1999 5.27216L14.5899 3.44216C14.5228 3.24354 14.395 3.07103 14.2245 2.94901C14.0541 2.82698 13.8495 2.76162 13.6399 2.76216H9.6399C9.42183 2.75078 9.20603 2.81109 9.02546 2.93388C8.84489 3.05666 8.70948 3.23518 8.6399 3.44216L8.0799 5.27216C8.0019 5.50365 7.84187 5.69857 7.63001 5.82016C7.41815 5.94175 7.16911 5.98159 6.9299 5.93216L4.9999 5.55216C4.80445 5.52454 4.6052 5.55539 4.42724 5.6408C4.24929 5.72622 4.1006 5.86239 3.9999 6.03216L1.9999 9.49216C1.89106 9.67281 1.84212 9.88325 1.86008 10.0934C1.87804 10.3035 1.96198 10.5026 2.0999 10.6622L3.3699 12.1022C3.53022 12.2847 3.61863 12.5193 3.61863 12.7622C3.61863 13.0051 3.53022 13.2397 3.3699 13.4222L2.0999 14.8622C1.96198 15.0217 1.87804 15.2208 1.86008 15.4309C1.84212 15.6411 1.89106 15.8515 1.9999 16.0322L3.9999 19.4922C4.10499 19.6746 4.26502 19.8193 4.45715 19.9055C4.64928 19.9917 4.86372 20.015 5.0699 19.9722L6.9499 19.5922C7.18911 19.5427 7.43815 19.5826 7.65001 19.7042C7.86187 19.8258 8.0219 20.0207 8.0999 20.2522L8.7099 22.0822C8.77948 22.2891 8.91489 22.4677 9.09546 22.5904C9.27603 22.7132 9.49183 22.7735 9.7099 22.7622H13.7099C13.9195 22.7627 14.1241 22.6973 14.2945 22.5753C14.465 22.4533 14.5928 22.2808 14.6599 22.0822L15.2699 20.2522C15.3479 20.0207 15.5079 19.8258 15.7198 19.7042C15.9316 19.5826 16.1807 19.5427 16.4199 19.5922L18.2999 19.9722C18.5061 20.015 18.7205 19.9917 18.9126 19.9055C19.1048 19.8193 19.2648 19.6746 19.3699 19.4922L21.3699 16.0322C21.4761 15.8495 21.5216 15.6379 21.5001 15.4277C21.4785 15.2175 21.3909 15.0195 21.2499 14.8622L19.8999 13.4222ZM18.4099 14.7622L19.2099 15.6622L17.9299 17.8822L16.7499 17.6422C16.0297 17.4949 15.2805 17.6173 14.6445 17.986C14.0085 18.3546 13.53 18.944 13.2999 19.6422L12.9199 20.7622H10.3599L9.9999 19.6222C9.76975 18.924 9.29128 18.3346 8.6553 17.966C8.01932 17.5973 7.27012 17.4749 6.5499 17.6222L5.3699 17.8622L4.0699 15.6522L4.8699 14.7522C5.36185 14.2021 5.63383 13.4901 5.63383 12.7522C5.63383 12.0142 5.36185 11.3022 4.8699 10.7522L4.0699 9.85216L5.3499 7.65216L6.5299 7.89216C7.25012 8.03939 7.99932 7.91704 8.6353 7.54836C9.27128 7.17968 9.74975 6.59032 9.9799 5.89216L10.3599 4.76216H12.9199L13.2999 5.90216C13.53 6.60032 14.0085 7.18968 14.6445 7.55836C15.2805 7.92704 16.0297 8.04939 16.7499 7.90216L17.9299 7.66216L19.2099 9.88216L18.4099 10.7822C17.9235 11.3309 17.6549 12.0388 17.6549 12.7722C17.6549 13.5055 17.9235 14.2134 18.4099 14.7622ZM11.6399 8.76216C10.8488 8.76216 10.0754 8.99676 9.41761 9.43629C8.75982 9.87581 8.24713 10.5005 7.94438 11.2314C7.64163 11.9623 7.56241 12.7666 7.71675 13.5425C7.8711 14.3184 8.25206 15.0312 8.81147 15.5906C9.37088 16.15 10.0836 16.531 10.8595 16.6853C11.6355 16.8396 12.4397 16.7604 13.1706 16.4577C13.9015 16.1549 14.5262 15.6422 14.9658 14.9844C15.4053 14.3266 15.6399 13.5533 15.6399 12.7622C15.6399 11.7013 15.2185 10.6839 14.4683 9.93374C13.7182 9.18359 12.7008 8.76216 11.6399 8.76216ZM11.6399 14.7622C11.2443 14.7622 10.8577 14.6449 10.5288 14.4251C10.1999 14.2053 9.94351 13.893 9.79214 13.5275C9.64076 13.1621 9.60116 12.7599 9.67833 12.372C9.7555 11.984 9.94598 11.6277 10.2257 11.3479C10.5054 11.0682 10.8618 10.8778 11.2497 10.8006C11.6377 10.7234 12.0398 10.763 12.4053 10.9144C12.7707 11.0658 13.0831 11.3221 13.3028 11.651C13.5226 11.9799 13.6399 12.3666 13.6399 12.7622C13.6399 13.2926 13.4292 13.8013 13.0541 14.1764C12.679 14.5514 12.1703 14.7622 11.6399 14.7622Z" fill="#3D3D3D"/>
</svg>
