<svg width="24" height="25" viewBox="0 0 24 25" fill="none" xmlns="http://www.w3.org/2000/svg">
<path d="M19.9963 11.3831V19.7621C19.9963 20.2926 19.7856 20.8013 19.4105 21.1764C19.0355 21.5514 18.5268 21.7621 17.9963 21.7621H6.00433C5.47407 21.7619 4.96562 21.5511 4.59076 21.176C4.21591 20.801 4.00533 20.2924 4.00533 19.7621V11.3831M7.50233 9.51215L8.00233 3.76215M7.50233 9.51215C7.50233 12.4141 12.0003 12.4141 12.0003 9.51215M7.50233 9.51215C7.50233 12.6881 2.34733 12.0321 3.06933 9.26415L4.11433 5.25715C4.22601 4.82918 4.47641 4.4503 4.82635 4.17979C5.17629 3.90929 5.60603 3.76241 6.04833 3.76215H17.9523C18.3946 3.76241 18.8244 3.90929 19.1743 4.17979C19.5243 4.4503 19.7747 4.82918 19.8863 5.25715L20.9313 9.26415C21.6533 12.0331 16.4983 12.6881 16.4983 9.51215M12.0003 9.51215V3.76215M12.0003 9.51215C12.0003 12.4141 16.4983 12.4141 16.4983 9.51215M16.4983 9.51215L15.9983 3.76215" stroke="#488B2E" stroke-width="1.5" stroke-linecap="round" stroke-linejoin="round"/>
</svg>
