<svg width="24" height="25" viewBox="0 0 24 25" fill="none" xmlns="http://www.w3.org/2000/svg">
<path d="M12.7567 15.5521L11.9998 13.6621L11.2429 15.5521L9.2998 15.7249L10.7758 17.065L10.3312 19.0621L11.9998 18.001L13.6684 19.0621L13.2238 17.065L14.6998 15.7249L12.7567 15.5521ZM6.5998 3.76215H17.3998V5.56215H6.5998V3.76215ZM4.7998 7.36215H19.1998V9.16215H4.7998V7.36215Z" fill="#3D3D3D"/>
<path d="M19.2 12.7622V19.9622H4.8V12.7622H19.2ZM19.2 10.9622H4.8C4.32261 10.9622 3.86477 11.1518 3.52721 11.4894C3.18964 11.8269 3 12.2848 3 12.7622V19.9622C3 20.4395 3.18964 20.8974 3.52721 21.235C3.86477 21.5725 4.32261 21.7622 4.8 21.7622H19.2C19.6774 21.7622 20.1352 21.5725 20.4728 21.235C20.8104 20.8974 21 20.4395 21 19.9622V12.7622C21 12.2848 20.8104 11.8269 20.4728 11.4894C20.1352 11.1518 19.6774 10.9622 19.2 10.9622Z" fill="#3D3D3D"/>
</svg>
